<?xml version="1.0" encoding="utf-8"?>
<!-- Generator: Adobe Illustrator 25.0.0, SVG Export Plug-In . SVG Version: 6.00 Build 0)  -->
<svg version="1.1" id="Layer_1" xmlns="http://www.w3.org/2000/svg" xmlns:xlink="http://www.w3.org/1999/xlink" x="0px" y="0px"
	 viewBox="0 0 196.1 122.9" style="enable-background:new 0 0 196.1 122.9;" xml:space="preserve">
<style type="text/css">
	.st0{fill:#1074B9;}
	.st1{fill:#F7EC15;}
</style>
<g>
	<path class="st0" d="M90.8,38.6c4.4,0,8.9,0,13.3,0c3.5,0,7,0,10.6,0c5.7,0,10.6-4.5,11-10.1c0.4-6-3.6-11.1-9.5-11.9
		c-0.6-0.1-1.2-0.1-1.8-0.1c-25.2,0-50.5,0-75.7,0c-10.5,0-19.7,7.7-21.5,18.1c-2,12.1,6.2,23,17.9,24.9c2.8,0.5,5.7,0.2,8.5,0.3
		c0.5,0,0.6-0.2,0.6-0.7c0-3,0-6,0-9c0-0.5-0.2-0.7-0.7-0.7c-1,0-2,0-3,0c-1.9-0.1-2.8-1-2.8-2.8c0-4.2,0-8.3,0-12.5
		c0-1.1,0-1.1,1.1-1.1c6.9,0,13.8,0,20.7,0c1.2,0,1.2,0,1.2,1.2c0,13.1,0,26.3,0,39.4c0,0.6,0,1.1,0,1.7c0,1.1,0,1.1-1.2,1.1
		c-0.6,0-1.3,0-1.9,0c-6.7,0-13.4,0.1-20.1,0c-9-0.1-16.9-3.2-23.7-9C6.5,61.1,2,53.4,0.7,44C-1.3,30.1,3.1,18.5,13.6,9.2
		c5.9-5.2,12.8-8,20.6-9C36.6-0.1,39.1,0,41.5,0c23.9,0,47.8,0,71.7,0c3.3,0,6.6,0.2,9.7,1.3c10.5,3.7,16.9,10.9,18.8,21.9
		c2.2,12.4-4.7,24.5-16.1,29.5c-3.4,1.5-7,2.3-10.7,2.3c-9.6,0-19.2,0-28.8,0c-0.2,0-0.4,0-0.6,0c0.1-0.3,0.2-0.7,0.3-1
		c0.8-2.4,1.5-4.9,2.3-7.3C89,44,89.8,41.2,90.8,38.6z"/>
	<path class="st1" d="M90.8,38.6c-1,2.7-1.8,5.4-2.7,8.2c-0.8,2.4-1.6,4.9-2.3,7.3c-0.1,0.3-0.2,0.7-0.3,1c-0.7,1.7-1.2,3.5-1.7,5.3
		c-0.2,0.7-0.1,0.8,0.6,0.8c2.6-0.1,5.1-0.1,7.7-0.2c0.4,0,0.7,0,1.1,0c0.1,0.5-0.2,0.8-0.4,1.2c-3.6,6.9-7.3,13.8-10.9,20.7
		c-0.4,0.7-0.8,1-1.7,1c-2.8-0.1-5.7,0-8.5,0c-0.9,0-0.9,0-0.7-0.9c0.3-1.3,0.7-2.6,1-4c0.3-1.1,0.2-1.2-0.9-1.2c-2.3,0-4.5,0-6.8,0
		c-0.3,0-0.5,0-0.8,0c-0.5,0-0.6-0.3-0.5-0.7c0-0.2,0.1-0.4,0.1-0.6c1.9-7.8,3.8-15.6,5.7-23.4c2-8.2,4-16.4,6-24.6
		c0.3-1.1,0.3-1.1,1.3-1.1c5.5-0.1,11-0.2,16.6-0.2c0.4,0,0.9-0.1,1.3,0.1c0.1,0.4-0.1,0.7-0.2,1.1c-1,3.1-2,6.2-2.9,9.3
		C90.9,38,90.9,38.3,90.8,38.6z"/>
	<path class="st0" d="M179.4,75.4c-0.4,0.2-0.8,0.1-1.2,0.1c-19.8,0-39.5,0-59.3,0.1c-1.7,0-1.5,0.2-1.5-1.5c0-4.4,0-8.7,0.1-13.1
		c0-0.3,0-0.5,0-0.8c0-0.4,0.2-0.6,0.6-0.5c0.3,0,0.7,0,1,0c17.6,0,35.3,0,52.9,0.1c1.2,0,1.1-0.2,1.6,1.1c1.8,4.4,3.6,8.9,5.4,13.3
		C179.2,74.6,179.4,74.9,179.4,75.4z"/>
	<path class="st0" d="M129.8,0.2c16.7,0,33.3,0,50,0c0.2,0.3,0,0.6-0.1,0.8c-2,4.6-4,9.2-6,13.8c-0.3,0.7-0.7,1-1.5,1
		c-9.3,0-18.5,0-27.8,0c-1,0-1,0-1.3-0.9c-2.6-6.3-6.9-11.1-12.9-14.4c-0.1-0.1-0.2-0.2-0.4-0.2C129.7,0.3,129.8,0.2,129.8,0.2z"/>
	<path class="st1" d="M139,45.6c0.3-0.7,0.7-1.1,1.1-1.6c2.5-3.8,4.2-7.9,4.7-12.4c0.1-1.1,0.1-1.1,1.2-1.1c6.2,0,12.4,0.1,18.6,0.1
		c1,0,1,0,1,1.1c0,4.4-0.1,8.7-0.1,13.1c0,0.2,0,0.4,0,0.6c0,0.5-0.2,0.7-0.7,0.6c-1,0-2-0.1-3-0.1c-7.1,0-14.2-0.1-21.3-0.1
		C140,45.7,139.5,45.8,139,45.6z"/>
	<path class="st0" d="M36.7,88c-1.2-0.9-2.6-1.5-4.1-1.7c-1-0.1-2,0-2.9,0.2C28,87.1,27,88.3,26.6,90c-0.4,1.6-0.4,3.2,0,4.7
		c0.5,2,1.8,3.3,3.9,3.6c1.4,0.2,2.7,0.1,4-0.3c0.6-0.2,0.8-0.5,0.8-1.1c0-0.8,0-1.7,0-2.5c0-0.6-0.2-0.8-0.8-0.8
		c-0.6,0-1.2,0-1.8,0c-0.7,0-0.7,0-0.7-0.8c0-0.5-0.1-0.9,0.7-0.9c1.4,0,2.7,0,4.1,0c0.4,0,0.6,0.1,0.6,0.6c0,1.8,0,3.6,0,5.3
		c0,0.4-0.1,0.6-0.5,0.8c-0.5,0.3-0.9,0.5-1.4,0.7c-2,0.7-4,0.9-6,0.4c-2.6-0.6-4.2-2.2-4.9-4.7c-0.5-1.8-0.5-3.6-0.1-5.4
		c0.7-2.7,2.4-4.4,5.1-5c2.1-0.4,4.2-0.2,6.2,0.6c0.8,0.3,1.3,0.8,1.1,1.7C36.9,87.4,37,87.7,36.7,88z"/>
	<path class="st0" d="M76.8,92.2c0-2.1,0-4.2,0-6.2c0-1.2,0-1.2,1.2-1.1c0.1,0,0.2,0,0.2,0c0.5-0.1,0.7,0.2,0.6,0.7
		c0,1.2,0,2.4,0,3.6c0,1.9,0,1.9,1.9,1.9c1.5,0,3.1,0,4.6,0c0.8,0,0.8,0,0.8-0.8c0-1.5,0-3,0-4.5c0-0.6,0.1-0.9,0.8-0.8
		c0.1,0,0.2,0,0.2,0c1.1,0,1.1,0,1.1,1c0,3.3,0,6.5,0,9.8c0,1.1,0,2.2,0,3.3c0,0.9,0,0.9-1,0.9c-0.1,0-0.2,0-0.2,0
		c-0.8,0-0.9,0-0.9-0.9c0-1.8,0-3.6,0-5.3c0-0.9,0-0.9-0.9-0.9c-1.9,0-3.7,0-5.6,0c-0.9,0-0.9,0-0.9,0.9c0,1.8,0,3.6,0,5.3
		c0,0.9,0,0.9-0.9,0.9c-0.2,0-0.4,0-0.6,0c-0.4,0-0.6-0.2-0.6-0.6c0-0.7,0-1.4,0-2C76.8,95.6,76.8,93.9,76.8,92.2
		C76.8,92.2,76.8,92.2,76.8,92.2z"/>
	<path class="st0" d="M156.3,92.9c2.1,1.8,2.8,4.5,4.1,6.8c-0.5,0.3-1,0.1-1.4,0.2c-0.6,0.1-0.9-0.2-1.1-0.7c-0.5-1-1-2-1.5-2.9
		c-0.2-0.4-0.4-0.8-0.7-1.2c-0.6-1-1.5-1.5-2.6-1.5c-0.5,0-1.1,0-1.6,0c-0.6,0-0.8,0.2-0.8,0.8c0,1.4,0,2.8,0,4.2c0,0.3,0,0.5,0,0.8
		c0,0.4-0.2,0.6-0.6,0.6c-0.2,0-0.4,0-0.6,0c-0.8,0-0.9,0-0.9-0.8c0-4.5,0-8.9,0-13.4c0-0.8,0-0.8,0.8-0.8c1.4,0,2.9,0,4.3,0
		c0.3,0,0.7,0,1,0.1c2.9,0.5,4.3,3.2,3.2,5.9c-0.3,0.6-0.7,1.1-1.2,1.5C156.7,92.5,156.4,92.6,156.3,92.9z M150.8,89.2
		c0,0.7,0,1.4,0,2c0,0.3,0,0.6,0.5,0.6c1.1,0,2.1,0.1,3.2-0.1c1.3-0.3,1.9-1.2,1.9-2.6c0-1.4-0.6-2.2-2-2.5c-1-0.2-2-0.1-2.9-0.1
		c-0.5,0-0.6,0.3-0.6,0.6C150.8,87.8,150.8,88.5,150.8,89.2z"/>
	<path class="st0" d="M112,92.4c0-2.2,0-4.4,0-6.6c0-0.9,0-0.9,0.9-0.9c2.6,0,5.3,0,7.9,0c0.3,0,0.6-0.1,0.6,0.3
		c0.1,0.4,0.2,0.9-0.1,1.3c-0.2,0.2-0.5,0.1-0.8,0.1c-1.8,0-3.6,0-5.4,0c-1.1,0-1.1,0-1.1,1c0,0.8,0,1.6,0,2.4c0,1,0,1,1,1
		c1.7,0,3.4,0,5.1,0c0.9,0,1.3,0.6,1,1.4c-0.1,0.4-0.5,0.3-0.8,0.3c-1.7,0-3.3,0-5,0c-1.5,0-1.3,0-1.4,1.3c0,1.1,0,2.1,0,3.2
		c0,0.8,0,0.8,0.8,0.9c1.7,0,3.4,0,5.1,0c0.3,0,0.5,0,0.8,0c0.3,0,0.7-0.1,0.8,0.2c0.2,0.4,0.2,0.9,0,1.3c-0.1,0.3-0.5,0.2-0.7,0.2
		c-1.8,0-3.6,0-5.3,0c-0.8,0-1.7,0-2.5,0c-1.1,0-1.1,0-1.1-1C112,96.7,112,94.5,112,92.4z"/>
	<path class="st0" d="M92.2,90.4c0-1.6,0-3.1,0-4.7c0-0.9,0-0.9,0.9-0.9c0.1,0,0.2,0,0.3,0c0.8,0,0.8,0,0.8,0.9c0,2.8,0,5.5,0,8.3
		c0,0.7,0.1,1.4,0.2,2c0.3,1.4,1.2,2.2,2.7,2.4c0.3,0,0.5,0.1,0.8,0.1c2.2,0,3.4-1,3.6-3.2c0.1-0.6,0.1-1.3,0.1-1.9
		c0-2.5,0-5.1,0-7.6c0-0.9,0-0.9,0.9-0.9c0.2,0,0.5,0,0.7,0c0.3,0,0.5,0.1,0.5,0.5c0,0.2,0,0.4,0,0.6c0,2.8,0,5.5,0,8.3
		c0,0.6,0,1.2-0.2,1.8c-0.4,2.1-1.6,3.5-3.7,4c-1.3,0.3-2.7,0.3-4-0.1c-1.7-0.5-2.8-1.6-3.3-3.3c-0.2-0.7-0.3-1.4-0.3-2.1
		C92.2,93.1,92.2,91.8,92.2,90.4C92.2,90.4,92.2,90.4,92.2,90.4z"/>
	<path class="st1" d="M72.3,101c-3.8,7.2-7.5,14.1-11.2,21.3c0.1-1.3,0.4-2.3,0.7-3.3c1.4-5.6,2.8-11.1,4.3-16.7
		c0.4-1.5,0.1-1.2,1.6-1.3C69.1,101,70.6,101,72.3,101z"/>
	<path class="st0" d="M184.8,97.3c0.4,0,0.8,0.3,1.1,0.4c1.2,0.5,2.5,0.8,3.9,0.8c0.6,0,1.2-0.1,1.8-0.4c1-0.4,1.5-1.1,1.5-2.2
		c0-1.1-0.5-1.8-1.4-2.2c-0.7-0.3-1.5-0.5-2.3-0.6c-0.8-0.2-1.6-0.4-2.4-0.7c-1.3-0.6-2.1-1.5-2.3-3c-0.1-1.5,0.3-2.8,1.6-3.8
		c0.8-0.6,1.7-0.9,2.6-1c1.6-0.2,3.1,0,4.6,0.4c0.9,0.2,0.9,0.2,0.9,1.1c0,0.3,0.1,0.6-0.1,0.9c-0.5,0-0.8-0.2-1.2-0.4
		c-1.4-0.5-2.8-0.8-4.3-0.4c-0.5,0.1-0.9,0.3-1.3,0.7c-1.1,1.1-0.8,2.9,0.6,3.5c0.9,0.4,1.8,0.5,2.7,0.7c1,0.2,2,0.5,2.8,1.1
		c2.3,1.4,2.3,5.9-0.5,7.1c-0.8,0.4-1.7,0.6-2.6,0.7c-1.7,0.1-3.3-0.1-4.9-0.6c-0.8-0.3-0.9-0.3-0.8-1.2
		C184.7,98,184.6,97.6,184.8,97.3z"/>
	<path class="st0" d="M162.4,92.3c0-2.2,0-4.3,0-6.5c0-1,0-1,0.9-1c2.6,0,5.1,0,7.7,0c0.3,0,0.7-0.1,0.8,0.2c0.2,0.4,0.2,0.9,0,1.3
		c-0.1,0.3-0.5,0.2-0.7,0.2c-1.7,0-3.5,0-5.2,0c-0.3,0-0.5,0-0.8,0c-0.5,0-0.7,0.2-0.6,0.7c0,1,0,2,0,2.9c0,0.6,0.2,0.8,0.8,0.8
		c1.8,0,3.6,0,5.3,0c1.1,0,1.1,0.1,1,1.2c0,0.4-0.2,0.6-0.6,0.6c-1.6,0-3.3,0-4.9,0c-0.3,0-0.6,0-0.9,0c-0.5,0-0.7,0.2-0.7,0.7
		c0,1.3,0,2.6,0,4c0,0.6,0.3,0.7,0.8,0.7c1.7,0,3.4,0,5.1,0c0.3,0,0.5,0,0.8,0c0.9,0,1.3,0.6,1,1.5c-0.1,0.2-0.2,0.3-0.4,0.3
		c-0.3,0-0.5,0-0.8,0c-2.4,0-4.8,0-7.3,0c-1.1,0-1.1,0-1.1-1.2C162.4,96.6,162.4,94.4,162.4,92.3z"/>
	<path class="st0" d="M173.6,97.3c0.4,0,0.7,0.2,1,0.4c1.3,0.5,2.6,0.9,4,0.8c0.6,0,1.2-0.1,1.8-0.4c1-0.4,1.5-1.2,1.5-2.2
		c0-1-0.4-1.7-1.4-2.2c-0.8-0.4-1.6-0.5-2.4-0.7c-0.8-0.2-1.5-0.3-2.3-0.6c-1.4-0.6-2.3-1.6-2.4-3.2c-0.1-1.7,0.5-3,2-3.9
		c0.8-0.5,1.8-0.7,2.7-0.7c1.5-0.1,2.9,0.1,4.3,0.5c0.5,0.1,0.8,0.4,0.7,1c-0.1,0.4,0.1,0.8-0.2,1.1c-1-0.3-2-0.7-3-0.9
		c-0.9-0.1-1.8-0.1-2.7,0.2c-1.1,0.3-1.7,1.1-1.7,2.2c0,0.9,0.4,1.5,1.2,1.8c0.8,0.3,1.7,0.4,2.5,0.6c0.8,0.2,1.6,0.4,2.4,0.7
		c1.7,0.9,2.5,2.3,2.3,4.3c-0.2,1.9-1.2,3.1-3.1,3.6c-1.9,0.5-3.8,0.4-5.7-0.1c0,0-0.1,0-0.1,0C173.3,99.2,173.3,99.2,173.6,97.3z"
		/>
	<path class="st0" d="M57.8,99.7c-0.1,0.1-0.2,0.1-0.2,0.1c-1.8,0.2-1.8,0.2-2.4-1.5c-0.2-0.6-0.4-1.2-0.6-1.8
		c-0.1-0.3-0.3-0.5-0.7-0.5c-1.9,0-3.9,0-5.8,0c-0.4,0-0.6,0.3-0.7,0.6c-0.3,0.8-0.6,1.6-0.8,2.3c-0.3,0.9-0.3,0.9-1.3,0.9
		c-0.3,0-0.7,0.1-1-0.1c-0.1-0.4,0.1-0.7,0.2-1c1.7-4.3,3.3-8.7,5-13c0.3-0.9,0.3-0.9,1.3-0.9c0.2,0,0.3,0,0.5,0
		c0.7-0.1,1,0.2,1.2,0.8c0.8,2.2,1.7,4.4,2.5,6.7c0.8,2.2,1.7,4.4,2.5,6.6C57.7,99.2,57.7,99.4,57.8,99.7z M48.3,94.4
		c1.6,0,3.1,0,4.5,0c0.9,0,0.9-0.1,0.6-0.9c-0.7-1.9-1.4-3.7-2.1-5.6c-0.1-0.2-0.1-0.5-0.5-0.6C50.1,89.5,49.2,91.9,48.3,94.4z"/>
	<path class="st0" d="M136.7,92.4c0-2.2,0-4.4,0-6.6c0-0.9,0-0.9,1-0.9c1.3,0,2.6,0,3.9,0c0.1,0,0.2,0,0.3,0
		c3.4,0.1,5.2,2.5,4.4,5.9c-0.3,1.4-1.2,2.3-2.5,2.7c-0.8,0.3-1.5,0.4-2.3,0.4c-0.5,0-1.1,0-1.6,0c-1.1,0-1.1,0-1.1,1
		c0,1.4,0,2.7,0,4.1c0,0.9,0,0.9-0.9,0.9c-0.2,0-0.3,0-0.5,0c-0.5,0.1-0.8-0.1-0.7-0.7c0-0.2,0-0.5,0-0.7
		C136.7,96.4,136.7,94.4,136.7,92.4z M138.7,89.3C138.7,89.3,138.7,89.3,138.7,89.3c0,0.8,0,1.5,0,2.3c0,0.3,0,0.6,0.4,0.6
		c1.1,0,2.1,0.1,3.2-0.1c1.3-0.3,1.9-1.3,1.9-2.7c0-1.4-0.7-2.3-2-2.7c-1-0.2-2-0.1-2.9-0.2c-0.5,0-0.6,0.3-0.6,0.6
		C138.7,87.9,138.7,88.6,138.7,89.3z"/>
	<path class="st0" d="M123.3,85c0.2-0.1,0.2-0.1,0.3-0.1c1.3-0.3,2.1,0.1,2.8,1.3c0.6,1.1,1.4,2.1,2.1,3.1c0.2,0.3,0.3,0.7,0.8,0.8
		c0.6-0.6,1-1.3,1.4-2c0.6-0.8,1.2-1.7,1.7-2.5c0.4-0.6,0.8-0.9,1.5-0.8c0.3,0,0.7,0,1,0c0.2,0.4-0.1,0.6-0.3,0.9
		c-1.2,1.9-2.4,3.7-3.7,5.6c-0.4,0.6-0.4,1,0,1.6c1.3,1.9,2.6,3.9,3.9,5.9c0.2,0.3,0.4,0.6,0.6,1c-0.7,0.2-1.2,0.1-1.8,0.1
		c-0.4,0-0.6-0.3-0.7-0.6c-0.8-1.2-1.6-2.4-2.4-3.6c-0.4-0.7-0.9-1.3-1.3-2c-0.5,0.2-0.6,0.6-0.9,1c-1,1.4-1.9,2.8-2.8,4.3
		c-0.5,0.8-1,1.1-1.8,1c-0.3,0-0.5,0-0.8,0c-0.2-0.4,0.1-0.5,0.2-0.7c1.4-2.2,2.9-4.4,4.4-6.5c0.4-0.6,0.4-1,0-1.5
		c-1.1-1.6-2.2-3.2-3.2-4.8C123.8,85.9,123.6,85.5,123.3,85z"/>
	<path class="st0" d="M64.7,92.3c0-2.2,0-4.3,0-6.5c0-1,0-1,1-1c1.3,0,2.6,0,4,0c0.7,0,1.4,0.1,2.1,0.4c1.4,0.5,2.2,1.4,2.5,2.8
		c0.1,0.7,0.2,1.3,0.1,2c-0.3,2-1.5,3.2-3.5,3.6c-1,0.2-2.1,0.1-3.2,0.2c-0.9,0-0.9,0-0.9,1c0,1.3,0,2.6,0,4c0,1.1,0,1.1-1.1,1.1
		c0,0-0.1,0-0.1,0c-0.6,0.1-0.8-0.2-0.8-0.8c0-1.4,0-2.8,0-4.2C64.7,94,64.7,93.2,64.7,92.3C64.7,92.3,64.7,92.3,64.7,92.3z
		 M68.6,92.1c0.4,0,0.8,0,1.1,0c1.5-0.1,2.4-1,2.5-2.4c0.1-1.7-0.6-2.7-2.2-3.1c-0.9-0.2-1.7-0.1-2.6-0.1c-0.5,0-0.7,0.2-0.7,0.7
		c0,1,0,2,0,3.1C66.8,92.2,66.8,92.2,68.6,92.1z"/>
	<path class="st0" d="M41.9,92.4c0,2.1,0,4.2,0,6.3c0,1.2,0,1.2-1.2,1.1c-0.1,0-0.2,0-0.3,0c-0.4,0-0.5-0.2-0.5-0.6
		c0-0.2,0-0.5,0-0.7c0-4.2,0-8.4,0-12.6c0-0.2,0-0.3,0-0.5c-0.1-0.5,0.2-0.8,0.7-0.7c0,0,0.1,0,0.1,0c1.2,0,1.2,0,1.3,1.2
		C41.9,88.2,41.9,90.3,41.9,92.4z"/>
</g>
</svg>
